<svg xmlns="http://www.w3.org/2000/svg" xmlns:xlink="http://www.w3.org/1999/xlink" width="683.403" height="93.58" viewBox="0 0 683.403 93.58">
  <defs>
    <clipPath id="clip-path">
      <rect id="Rectangle_2" data-name="Rectangle 2" width="683.403" height="93.58" fill="#474647"/>
    </clipPath>
  </defs>
  <g id="Group_6" data-name="Group 6" transform="translate(-834 -233)">
    <g id="Group_5" data-name="Group 5" transform="translate(834 233)">
      <g id="Group_4" data-name="Group 4" transform="translate(0 0)">
        <g id="Group_3" data-name="Group 3" transform="translate(0 0)" clip-path="url(#clip-path)">
          <path id="Path_15" data-name="Path 15" d="M46.746,93.581C20.009,93.141.09,72.174,0,46.683-.093,20.956,21.154-.069,46.919,0A46.758,46.758,0,0,1,93.561,47.054C93.491,71.34,74.266,93.18,46.746,93.581M80.784,72.5a7.312,7.312,0,0,0-.657-.464,12.4,12.4,0,0,1-5.861-6.761c-1.6-4.017-4.4-6.757-9.013-7.479-6.044-.944-10.1.627-12.8,5.545a19.948,19.948,0,0,0-1.434,3.509c-.978,3.05-.375,6.043.411,9.037,1.009,3.845,1.824,7.746,3.732,11.3.488.909,1.045,1.3,2.1.914,2.094-.762,4.267-1.324,6.32-2.179A41.941,41.941,0,0,0,80.784,72.5M41.817,89.272c0-4.02-.008-7.632,0-11.242.008-3.186.141-6.375.021-9.554a4.941,4.941,0,0,0-3.093-4.664,32.681,32.681,0,0,0-10.8-2.56,4.947,4.947,0,0,0-4.9,2.6c-2.738,4.583-3.2,9.648-3.3,14.78a3.255,3.255,0,0,0,1.338,2.079,38.7,38.7,0,0,0,12.85,6.672c2.576.768,5.234,1.267,7.881,1.893M32.211,20.593c2.828.4,4.02,1.555,4.06,4.1a12.052,12.052,0,0,1-.616,3.693c-.594,1.916-1.47,3.746-2.048,5.666a7.091,7.091,0,0,0-.337,3.339c1,4.7,4.089,7.606,8.545,9.1,1.641.549,2.344-.2,1.937-1.889-.381-1.57-.878-3.113-1.208-4.693a5.984,5.984,0,0,1,1.066-5.069A19.052,19.052,0,0,0,45.786,30.4a5.128,5.128,0,0,0-.971-5.387A44.554,44.554,0,0,0,36.624,17.1c-3.115-2.311-6.142-4.706-7.207-8.717-.03-.112-.159-.2-.337-.4l-3.424,1.75a8.528,8.528,0,0,1,2.145,5.94c-.005.83.055,1.661.085,2.491a11.787,11.787,0,0,0,3.075,7.222,2.278,2.278,0,0,0,1.879.737c.945-.275.72-1.27.5-2.031-.322-1.129-.719-2.237-1.133-3.5M4.378,47.5c.208-.11.4-.194.577-.305C6.7,46.112,8.424,45,10.185,43.941a2.8,2.8,0,0,1,3.6.427,26.274,26.274,0,0,0,3.653,2.772c1.689,1.016,2.917.222,2.941-1.741a5.3,5.3,0,0,1,.082-1.56c.133-.4.515-.916.86-.978a1.413,1.413,0,0,1,1.114.641,8.555,8.555,0,0,1,.72,1.949,55.376,55.376,0,0,0,1.661,5.5c1.1,2.623,3.032,4.639,5.931,5.082a75.017,75.017,0,0,0,8.077.457c.67.029.868-.329.815-1.011a10.267,10.267,0,0,0-4.053-7.9c-2.911-2.189-5.776-4.43-6.9-8.162a1.625,1.625,0,0,0-1.127-.922,42.156,42.156,0,0,0-6.5-.489c-3.165.13-6.018,1.515-8.762,2.972-2.339,1.242-4.634,2.057-7.243.981a2.452,2.452,0,0,0-.682-.008ZM73.517,13.546a9.793,9.793,0,0,0-.671.9c-1.6,2.787-3.858,4.473-7.22,4.349a3.863,3.863,0,0,0-1.561.085c-.926.39-2.122.734-2.6,1.483a6.951,6.951,0,0,1-3.841,2.982,7.912,7.912,0,0,0-4.5,4.306,51.539,51.539,0,0,0-5.154,16.288c-.29,1.871-.351,1.935,1.529,2.6.282-.357.585-.727.874-1.107a59.9,59.9,0,0,1,9.141-9.921,23.8,23.8,0,0,0,5.6-7.05q1.19-2.186,2.215-4.46a4.235,4.235,0,0,1,2.9-2.6,8.49,8.49,0,0,0,5.5-4.709,1.327,1.327,0,0,0-.026-1.192,24.515,24.515,0,0,0-2.189-1.959M88.43,37.357c-.856.656-1.53,1.2-2.228,1.7a6.376,6.376,0,0,1-5.391,1.407,25.348,25.348,0,0,0-3.775-.457c-2.007-.149-2.753.527-2.864,2.49-.1,1.774-2.674,3.02-4.239,2.182-2.267-1.214-4.723-2.05-7.285-1.261a10.558,10.558,0,0,0-5.907,4.95,2.134,2.134,0,0,0,1,3.358,11.352,11.352,0,0,0,3.222,1.067,26.246,26.246,0,0,0,17.316-3.772,6.394,6.394,0,0,0,1.786-1.711,13.392,13.392,0,0,1,7.7-5.093c.449-.121.9-.238,1.434-.379-.259-1.5-.5-2.9-.773-4.483M84.678,27.073c-.9-1.5-1.716-2.865-2.611-4.357-.72,1.038-1.3,1.9-1.907,2.741-1.678,2.353-3.734,3.637-6.829,2.975-1.764-.377-3.708-.492-5.26.857a9.974,9.974,0,0,0-3.26,5.112,2.741,2.741,0,0,0,1.018,3.03A6.335,6.335,0,0,0,75.2,36.076c2.144-3.149,4.249-6.329,7.91-7.985a13.355,13.355,0,0,0,1.564-1.018M12.949,20.842c2.379,2.527,4.736,4.8,6.818,7.3a22.264,22.264,0,0,0,7.581,5.88A2.65,2.65,0,0,0,30.52,33.7a2.855,2.855,0,0,0,.9-3.212c-1.466-4.046-4.146-7.1-8.337-8.174-2.985-.767-5.97-1.246-8.343-3.619l-1.789,2.148m3.827,32.493c-4.6.005-8.065.989-10.195,4.756-.829,1.467-.449,2.842,1.174,3.371,4.738,1.545,9.059.121,13.235-1.956,2.013-1,2.156-2.387.734-4.149-1.457-1.8-3.554-1.853-4.949-2.022M40.542,4.557c.344.8.525,1.334.79,1.822a7.061,7.061,0,0,1,.709,5.188,6.421,6.421,0,0,0-.3,2.061,4.459,4.459,0,0,0,.723,2.348,85.593,85.593,0,0,0,5.964,6.364c.619.588,1.786.6,2.7.875.208-.745.7-1.542.571-2.224-.462-2.478-1.109-4.924-1.748-7.366a1.867,1.867,0,0,0-.782-.993A6.016,6.016,0,0,1,46.339,8,22.857,22.857,0,0,0,45.8,5.042c-.092-.336-.563-.812-.853-.808-1.385.022-2.765.188-4.4.323m12.146,9.951c.27,1.545.408,2.672.673,3.768a2.539,2.539,0,0,0,2.1,2.235,2.689,2.689,0,0,0,2.67-1.76,6.48,6.48,0,0,0,.637-5.057,6.745,6.745,0,0,1,.258-5.223A7.421,7.421,0,0,0,59.447,7.1a.9.9,0,0,0-.712-1.268c-.881-.266-1.448-.247-1.715.866-.531,2.205-1.123,4.386-3.068,5.921a6.748,6.748,0,0,0-1.264,1.89M87.5,59.522c-3.526-1.707-6.918-3.378-10.341-4.979a8.491,8.491,0,0,0-2.278-.564A2.1,2.1,0,0,0,72.4,55.252c-.425,1.071.394,1.779,1.156,2.246a19.036,19.036,0,0,0,3.416,1.623c3.1,1.126,6.225,2.164,9.5,3.294.285-.808.683-1.937,1.022-2.893M30.483,7.251c1.42,3.05,2.685,5.69,5.761,6.761,2.049.712,3.231-.373,2.9-2.512-.282-1.844-.42-3.709-.626-5.565-.027-.249-.075-.5-.162-1.056L30.483,7.251M6.484,32.8c1.693.394,3.243.819,4.819,1.109a16.544,16.544,0,0,0,7.529.053c1.351-.375,1.534-1.049.625-2.059A5.239,5.239,0,0,0,15.05,30c-2.363.163-4.72.344-6.874-1.381-.593,1.461-1.123,2.77-1.692,4.175M85.75,29.291c-2.6,1.3-5.008,2.453-6.3,5.013a2.329,2.329,0,0,0,.4,3,2.174,2.174,0,0,0,2.972.389c1.446-1.04,2.805-2.2,4.15-3.375a1.189,1.189,0,0,0,.253-1.038C86.814,32,86.3,30.751,85.75,29.291M46.679,3.99c.489,1.437.815,2.47,1.192,3.484A5.886,5.886,0,0,0,50.8,10.867c1.029.508,2.112.515,2.644-.549.82-1.64,1.382-3.408,2.168-5.413L46.679,3.99M14.637,75.038l.5-.182c.577-2.315,1.226-4.614,1.668-6.955a1.942,1.942,0,0,0-.926-1.622,6.725,6.725,0,0,0-5.584.285,1.458,1.458,0,0,0-.46,1.345c1.54,2.415,3.185,4.762,4.8,7.129M78.5,18.277c-1.689,1.359-3.332,2.527-4.787,3.9-1.407,1.324-.937,2.627.966,3.093,2.613.638,4.8-.582,6.549-3.724L78.5,18.277M89.3,51.126c-2.126,0-4.021-.031-5.914.023a2.878,2.878,0,0,0-1.326.492c-1.223.753-1.342,1.593-.125,2.27A50.961,50.961,0,0,0,87.5,56.4a1.059,1.059,0,0,0,.9-.505c.341-1.468.571-2.964.9-4.768M4.973,54.889c2.382-1.161,4.61-2.152,6.74-3.323,1.356-.745,1.274-1.711-.133-2.4C9.1,47.95,6.939,49.089,4.939,50.371c-1.3.833-.151,2.155-.2,3.25a7.239,7.239,0,0,0,.237,1.267M85.11,65.642c-1.72-.827-3.316-1.685-4.99-2.344a1.956,1.956,0,0,0-1.731.375,1.717,1.717,0,0,0-.044,1.648c1.174,1.726,2.5,3.352,3.921,5.22l2.843-4.9M66.757,9.04a49.077,49.077,0,0,0-1.683,4.953,2.509,2.509,0,0,0,.815,1.86,1.459,1.459,0,0,0,2.128-.038c1.192-1.174,2.326-2.4,3.631-3.764L66.757,9.04m-5.492-2.4c-1.481,2.376-.934,4.623-.211,6.847a.746.746,0,0,0,1.352.3c1.092-1.5,2.057-3.087,3.016-4.675.092-.152-.145-.7-.356-.8-1.246-.6-2.53-1.119-3.8-1.667M89.385,43.9a33.189,33.189,0,0,0-4.8,1.82,2.857,2.857,0,0,0-.883,2.213c0,.445.844,1.209,1.361,1.259a19.835,19.835,0,0,0,3.768-.208c.2-.019.523-.3.529-.464.042-1.407.023-2.816.023-4.62M20.046,13.527C21.526,14.809,22.838,16,24.229,17.1a1.546,1.546,0,0,0,1.315.126c.2-.077.207-.763.2-1.171-.019-.649-.21-1.3-.181-1.944A3.8,3.8,0,0,0,23.875,10.8c-1.214.863-2.407,1.716-3.83,2.73M15.92,17.576A6.763,6.763,0,0,0,20.9,20.008c1.077-.011,1.561-.714,1-1.5-.952-1.33-2.016-2.578-3.132-3.984L15.92,17.576M4.645,40.159a7.1,7.1,0,0,0,5.166-2.315c.574-.581.3-1.185-.316-1.5-1.1-.573-2.249-1.038-3.63-1.663-.429,1.929-.8,3.584-1.22,5.481m6.814-17.214c-.752,1.23-1.372,2.16-1.883,3.148a1.031,1.031,0,0,0,.242.96,4.3,4.3,0,0,0,4.408.793c.894-.345,1.227-.909.547-1.653-.982-1.074-2.076-2.046-3.313-3.248" transform="translate(0 0)" fill="#474647"/>
          <path id="Path_16" data-name="Path 16" d="M385.7,49.687c-1.051,2.156-1.981,3.919-2.783,5.739-1.835,4.16-3.585,8.355-5.428,12.509a7.87,7.87,0,0,1-1.309,1.612c-.482-.508-1.146-.933-1.42-1.535-5.9-12.929-11.737-25.882-17.62-38.814a16.485,16.485,0,0,0-1.926-3.256,5,5,0,0,0-3.756-1.607c-.327-.032-.62-.414-.929-.634.326-.247.649-.7.978-.708,4.556-.063,9.111-.074,13.665-.059.263,0,.525.329.786.505-.22.292-.386.74-.675.844a13.333,13.333,0,0,1-1.8.311c-1.5.305-1.9.892-1.319,2.315,1.393,3.4,2.823,6.777,4.342,10.117,3.4,7.483,6.864,14.936,10.306,22.4.162.349.372.677.689,1.248a10.87,10.87,0,0,0,.837-1.235c1.709-3.543,3.386-7.1,5.1-10.644a4.5,4.5,0,0,0,.1-4.046q-3.871-8.4-7.766-16.786c-.993-2.137-2.512-3.538-5.031-3.609-.345-.01-.677-.5-1.014-.764.371-.207.742-.589,1.116-.593q6.5-.074,13-.021c.4,0,.794.422,1.193.648-.366.259-.7.69-1.1.749-3.579.54-3.675.67-2.234,3.983q2.3,5.292,4.638,10.569c.186.42.423.819.738,1.42a11.4,11.4,0,0,0,.722-1.164q2.276-5.161,4.517-10.336a11,11,0,0,0,.541-1.749c.466-1.889-.053-2.509-2.023-2.723-.644-.07-1.8-.529-1.782-.725.1-1.13,1.111-.666,1.76-.674,3.46-.041,6.921-.044,10.381.01.455.007.9.41,1.356.627-.426.252-.846.708-1.281.72a5.345,5.345,0,0,0-4.82,3.13c-2.5,4.809-4.951,9.645-7.3,14.53a3.736,3.736,0,0,0-.064,2.756c2.2,5.143,4.543,10.226,6.847,15.325a4.5,4.5,0,0,0,.442.589c.319-.611.6-1.068.807-1.561q6.046-14.743,12.068-29.5a22.03,22.03,0,0,0,.908-2.733,1.6,1.6,0,0,0-1.349-2.241c-.716-.173-1.49-.125-2.2-.314-.33-.088-.571-.507-.853-.775.33-.205.66-.588.992-.59q5.71-.037,11.421.053c.366.005.725.4,1.086.618-.348.258-.681.711-1.048.741a5.2,5.2,0,0,0-4.579,3.248c-2.811,6.213-5.655,12.412-8.335,18.681-3.091,7.235-6.01,14.545-9.044,21.8a6.666,6.666,0,0,1-1.172,1.452c-.449-.478-1.071-.881-1.319-1.446-2.417-5.525-4.771-11.079-7.151-16.621-.2-.474-.464-.922-.908-1.793" transform="translate(129.587 8.46)" fill="#474647"/>
          <path id="Path_17" data-name="Path 17" d="M179.685,32.389c-.148,2.917-.336,5.834-.437,8.754q-.337,9.837-.589,19.678a19.584,19.584,0,0,0,.267,3.52c.274,1.756,1.034,2.4,2.783,2.583a18.3,18.3,0,0,1,2.215.26c.292.068.508.459.759.7-.285.2-.568.574-.855.577q-6.7.055-13.405-.005c-.3,0-.593-.46-.889-.707.255-.244.471-.61.774-.708a10.688,10.688,0,0,1,1.805-.322,3.114,3.114,0,0,0,2.935-2.887c.393-3.386.771-6.779.988-10.18.5-7.858.907-15.721,1.344-23.583a12.314,12.314,0,0,0,0-1.574c-.153-2.194-.941-3.135-3.074-3.665a18.34,18.34,0,0,1-1.923-.407c-.326-.121-.545-.531-.812-.811.319-.222.631-.622.96-.637,1.618-.068,3.239-.037,4.861-.038,1.445,0,2.894-.055,4.335.034.389.025,1.06.459,1.082.745.31,3.971,2.283,7.325,3.957,10.774,3.743,7.711,7.569,15.383,11.373,23.066.341.688.76,1.337,1.268,2.224.51-.872.938-1.519,1.282-2.208,4.536-9.074,9.1-18.136,13.56-27.249a49.307,49.307,0,0,0,2.354-6.376c.218-.662.447-.923,1.144-.916,3.067.027,6.133.021,9.2.005.712,0,1.226.127,1.1,1.175-.705.123-1.459.26-2.213.382-3.168.515-4.154,1.5-4.146,4.657q.025,10.367.253,20.733c.094,4.286.338,8.569.553,12.852.151,2.983.986,3.827,3.952,4.15a1.96,1.96,0,0,1,.771.118,7.419,7.419,0,0,1,.951.805c-.334.2-.667.559-1,.562q-7.425.058-14.849,0c-.341,0-.678-.379-1.016-.582.319-.288.594-.716.967-.833a20.817,20.817,0,0,1,2.07-.33c1.575-.325,2.253-.966,2.331-2.553.133-2.75.178-5.506.167-8.259-.03-7.176-.11-14.352-.178-21.527-.007-.625-.082-1.248-.125-1.872l-.342-.081c-.237.382-.505.748-.705,1.148q-7.867,15.719-15.716,31.448c-.486.977-.856,2.012-1.363,2.978a4.515,4.515,0,0,1-.948.959,4.4,4.4,0,0,1-.815-.941q-7.818-17.12-15.606-34.253a15.806,15.806,0,0,0-.889-1.508l-.455.119" transform="translate(62.675 8.474)" fill="#474647"/>
          <path id="Path_18" data-name="Path 18" d="M494.72,24.226c-.942.173-1.887.325-2.826.52a2.911,2.911,0,0,0-2.471,2.691,20.664,20.664,0,0,0-.252,2.608q-.027,15.75-.008,31.5a10.721,10.721,0,0,0,.079,1.309c.357,2.926,1.1,3.643,4.023,4.027.718.095,1.912-.125,1.839.94-.079,1.141-1.27.618-1.953.623-4.6.041-9.2.015-13.8-.007-.515,0-1.329.24-1.256-.642.027-.319.7-.682,1.15-.849.648-.242,1.367-.289,2.037-.486a2.736,2.736,0,0,0,2.183-2.645c.125-5.334.193-10.667.245-16a1.54,1.54,0,0,0-1.659-1.656c-1.181-.042-2.364-.037-3.546-.038q-9.724,0-19.447,0c-1.86,0-2.324.377-2.324,2.2,0,4.81,0,9.623.168,14.43.1,3.013.992,3.776,4,4.117a9.394,9.394,0,0,1,1.677.277c.219.067.527.463.485.631a1.273,1.273,0,0,1-.625.668,1.763,1.763,0,0,1-.777.053c-4.773,0-9.548.016-14.321-.022a4.911,4.911,0,0,1-1.472-.514c.463-.368.875-.944,1.4-1.07,3.134-.759,3.888-1.5,3.9-4.743.042-10.937.014-21.875-.012-32.812a9.813,9.813,0,0,0-.329-2.2,3.05,3.05,0,0,0-2.691-2.511c-.779-.118-1.572-.166-2.338-.338-.234-.053-.581-.455-.547-.636.045-.24.392-.451.648-.611.127-.079.342-.022.518-.022,4.9,0,9.811.011,14.716-.01.8,0,1.289.167,1.053,1.222-.6.105-1.233.221-1.87.329-2.446.419-3.3,1.235-3.458,3.686-.149,2.353-.127,4.719-.152,7.08-.021,2.056-.032,4.113.008,6.168.031,1.616.455,2.078,2.031,2.083q11.431.039,22.861,0c1.622-.005,2.134-.545,2.122-2.164-.03-4.286-.073-8.573-.189-12.857-.073-2.68-1.023-3.645-3.691-4.035a4.155,4.155,0,0,1-1.156-.205,1.061,1.061,0,0,1-.5-.725c-.019-.162.341-.374.537-.556.025-.023.085-.01.129-.01,5.08,0,10.162-.016,15.241.031.308,0,.611.516.916.792-.1.125-.2.251-.3.375" transform="translate(164.607 8.502)" fill="#474647"/>
          <path id="Path_19" data-name="Path 19" d="M95.856,22.954c5.61-.127,11.212-.241,16.734,1.049,5.038,1.178,9.562,3.331,12.734,7.536,5.408,7.169,5.99,15.045,2.664,23.2-3.122,7.655-9.259,11.7-17.11,13.463a45.011,45.011,0,0,1-11.759.778c-5.16-.21-10.325-.293-15.486-.478a4.312,4.312,0,0,1-1.364-.571,8.732,8.732,0,0,1,1.242-.82,4.792,4.792,0,0,1,1.159-.2c2.249-.381,3.287-1.429,3.309-3.69.1-10.759.152-21.519.215-32.279a10.635,10.635,0,0,0-.093-1.177C87.7,25.992,87.687,26,83.956,25c-.353-.095-.6-.586-.9-.893.416-.233.823-.645,1.252-.667,3.847-.2,7.7-.336,11.546-.489m-2.135,21H93.71c0,5.294-.092,10.589.029,15.88.1,4.334,2.119,6.584,6.4,7.059a31.043,31.043,0,0,0,7.316-.023c6.7-.864,11.489-4.362,13.994-10.779a27.064,27.064,0,0,0,1.639-13.657c-.99-7.388-4.447-13.016-11.616-15.879-4.984-1.992-10.162-2.063-15.39-1.288-1.866.277-2.333.756-2.349,2.676-.044,5.336-.015,10.674-.015,16.01" transform="translate(30.414 8.458)" fill="#474647"/>
          <path id="Path_20" data-name="Path 20" d="M310,23a67.836,67.836,0,0,1,15.19.69c7.9,1.394,14.276,5.1,17.3,12.842,4.862,12.452-.714,27.538-16.135,31.4a45.41,45.41,0,0,1-13.3,1.045c-4.808-.229-9.623-.31-14.435-.452a8.5,8.5,0,0,1-1.438-.037c-.277-.059-.5-.37-.745-.568.214-.237.389-.615.648-.686.883-.24,1.8-.342,2.7-.552A2.774,2.774,0,0,0,302.1,64.15a30.175,30.175,0,0,0,.289-3.524q.035-14.83.01-29.659a16.041,16.041,0,0,0-.081-1.834c-.34-2.946-.919-3.513-3.834-4.089-.456-.089-.834-.568-1.249-.867.452-.252.894-.7,1.359-.723,3.8-.2,7.61-.316,11.415-.459m-2.145,20.954c0,4.635-.016,9.27.011,13.905a22.094,22.094,0,0,0,.256,3.524,6.164,6.164,0,0,0,5.939,5.5,43.132,43.132,0,0,0,7.333,0c6.394-.67,11.182-3.79,13.86-9.781A25.93,25.93,0,0,0,337.6,46.028c-.082-5.024-1.116-9.83-4.3-13.908-4.735-6.07-16.673-9.4-23.9-6.647a2.726,2.726,0,0,0-1.338,1.579,8.593,8.593,0,0,0-.2,2.6c-.015,4.767-.007,9.533-.007,14.3" transform="translate(109.59 8.453)" fill="#474647"/>
          <path id="Path_21" data-name="Path 21" d="M242.946,22.256c5.492.23,11.923,1.939,16.445,7.451,12.308,15,3.849,34.319-9.563,38.525-9.206,2.887-17.906,1.909-25.417-4.516-5.94-5.083-8.2-11.815-7.548-19.525,1.145-13.453,11.788-21.929,26.084-21.936m15.649,25.219A29.411,29.411,0,0,0,254.06,31.41a16.453,16.453,0,0,0-28.207,1.463c-2.345,4.491-2.8,9.318-2.319,14.294.542,5.566,2.171,10.688,5.843,15.042,6.964,8.261,20.656,7.309,26.139-1.881,2.279-3.817,3.067-8.057,3.079-12.853" transform="translate(80.131 8.227)" fill="#474647"/>
          <path id="Path_22" data-name="Path 22" d="M297.246,57.969a15.062,15.062,0,0,0,.229-1.875c0-6.824.048-13.65-.067-20.474-.045-2.659-.438-5.314-.727-7.966a2.89,2.89,0,0,0-2.463-2.705c-.942-.2-1.916-.266-2.834-.534-.389-.114-.671-.59-1-.9.379-.205.757-.588,1.137-.589,3.632-.01,7.265.052,10.9.079.875.007,1.757-.105,2.623-.025.373.034.711.418,1.066.644-.318.289-.59.705-.963.84-.778.279-1.618.381-2.416.61a2.5,2.5,0,0,0-1.983,2.333c-.208,2.482-.564,4.965-.574,7.45-.044,11.025.018,22.051.015,33.077a4.574,4.574,0,0,1-.405,1.292,4.545,4.545,0,0,1-1.383-.727q-10.322-11.731-20.588-23.512c-3.482-3.991-6.931-8.01-10.4-12.012-.392-.452-.82-.872-1.494-1.585a15.637,15.637,0,0,0-.305,2.033c0,8.619-.012,17.239.06,25.858a31.355,31.355,0,0,0,.593,4.943,2.806,2.806,0,0,0,2.544,2.464,24.227,24.227,0,0,1,2.727.373c.407.108.7.62,1.052.949a3.558,3.558,0,0,1-1.181.477c-4.423.033-8.847.036-13.271-.015-.4,0-.8-.431-1.2-.663.351-.268.679-.737,1.052-.775,4.5-.463,4.219-1.407,4.557-5.082.221-2.39.284-4.8.3-7.2.051-7.657.048-15.313.06-22.97,0-.656-.023-1.312-.064-1.967a4.923,4.923,0,0,0-3.767-4.8c-.831-.262-1.714-.367-2.542-.638-.294-.1-.5-.468-.742-.716.267-.2.533-.574.8-.578q4.8-.06,9.592,0a1.318,1.318,0,0,1,.941.534c3.737,6.033,8.655,11.105,13.339,16.362,4.98,5.587,10.037,11.107,15.047,16.666.459.508.829,1.1,1.24,1.646l.5-.315" transform="translate(94.561 8.473)" fill="#474647"/>
          <path id="Path_23" data-name="Path 23" d="M181.151,68.669h-4.6c-3.549,0-7.1.022-10.643-.026-.414-.005-.82-.4-1.231-.612.379-.268.748-.553,1.144-.794a1.344,1.344,0,0,1,.515-.079c3.074-.368,3.411-.86,2.5-3.767q-1.646-5.253-3.332-10.5c-.531-1.659-1.146-2.119-2.859-2.124-3.591-.01-7.183.016-10.774-.012a2.534,2.534,0,0,0-2.724,1.961c-1.183,3.75-2.42,7.485-3.6,11.24-.719,2.3-.255,2.938,2.123,3.156a8.285,8.285,0,0,1,1.678.275.824.824,0,0,1,.445.659c-.018.212-.345.407-.553.589-.052.047-.17.025-.256.025q-6.5-.018-13.005-.042a1.124,1.124,0,0,1-.292-.108c-.33-.763-.1-1.2.777-1.279a6.253,6.253,0,0,1,.651-.082c2.667.032,4.182-1.474,5.094-3.79,2.338-5.936,4.738-11.851,7-17.817,2.537-6.7,4.845-13.491,7.507-20.141.5-1.242,2.19-2.015,3.382-2.939a2.358,2.358,0,0,1,.907.922c1.281,3.627,2.489,7.277,3.741,10.914q4.8,13.946,9.621,27.884c.171.494.426.96.605,1.451a4.969,4.969,0,0,0,4.867,3.517c.755.03,1.719-.005,1.319,1.519M150.9,48.032c.978.105,1.446.2,1.916.2,2.972.019,5.944.047,8.917.012,1.719-.021,2.005-.445,1.453-2.116-1.545-4.68-3.123-9.351-4.7-14.022-.171-.51-.41-1-.616-1.494l-.525-.067c-2.113,5.731-4.227,11.462-6.447,17.485" transform="translate(50.108 8.303)" fill="#474647"/>
          <path id="Path_24" data-name="Path 24" d="M432.886,69.91a30.288,30.288,0,0,1-9.13-1.979,2.987,2.987,0,0,1-2.026-2.5c-.331-2.2-.788-4.39-1.112-6.6-.062-.412.249-.881.389-1.323.392.314.915.549,1.153.953a47.564,47.564,0,0,0,3.022,5.328,11.121,11.121,0,0,0,11.982,3.56c4.8-1.485,6.946-6.887,4.761-11.959a11.645,11.645,0,0,0-4.461-5.035c-2.976-2-6.01-3.93-8.889-6.065-3.213-2.383-5.428-5.471-5.6-9.649-.256-6.157,3.7-10.821,10.167-12.072,4.106-.794,8.1.144,12.112.8.288.048.652.582.71.933.345,2.153.649,4.316.867,6.485.037.36-.422.771-.651,1.157-.329-.3-.818-.538-.96-.909-2.076-5.373-5.338-7.4-10.966-6.762A7.452,7.452,0,0,0,428.239,35c1.211,2.623,3.376,4.273,5.7,5.82,3.13,2.079,6.336,4.082,9.247,6.442,3.923,3.179,5.068,7.543,4.184,12.414-.9,4.966-4.153,7.868-8.821,9.245a48,48,0,0,1-5.665.99" transform="translate(155.496 8.234)" fill="#474647"/>
          <path id="Path_25" data-name="Path 25" d="M419.912,24.225c-1.029.149-1.986.249-2.924.434a3.052,3.052,0,0,0-2.879,3.057,29.42,29.42,0,0,0-.231,3.4q-.027,14.7,0,29.4a25.834,25.834,0,0,0,.249,3.265,3,3,0,0,0,2.756,2.875,16.036,16.036,0,0,1,1.939.314,4.445,4.445,0,0,1,1.116.812c-.393.221-.783.626-1.179.631-3.5.051-7.007.03-10.511.03-1.62,0-3.242.04-4.86-.033-.352-.015-.685-.431-1.027-.664.295-.255.552-.644.89-.737.753-.208,1.56-.219,2.324-.4a2.874,2.874,0,0,0,2.587-2.874c.186-2.131.29-4.276.3-6.414q.041-12.993-.014-25.986a30.126,30.126,0,0,0-.247-3.528,3.117,3.117,0,0,0-2.935-3.16c-.727-.145-1.486-.155-2.2-.337-.274-.07-.468-.452-.7-.692.273-.2.538-.563.816-.573,1.575-.058,3.153-.032,4.73-.032,3.634,0,7.269.014,10.9-.011.794-.005,1.292.159,1.1,1.22" transform="translate(148.749 8.504)" fill="#474647"/>
          <path id="Path_26" data-name="Path 26" d="M121.907,23.016c5.513,0,11.027-.01,16.54.027.26,0,.518.411.775.63-.253.219-.477.563-.766.634-.762.186-1.553.251-2.331.371a3.037,3.037,0,0,0-2.715,2.78,16.859,16.859,0,0,0-.222,2.611q-.023,15.415-.008,30.83c0,.307,0,.614.022.919.248,3.961.725,4.486,4.636,5.123a1.869,1.869,0,0,1,.759.175c.238.17.541.484.522.711a.888.888,0,0,1-.63.594c-1.178.073-2.363.064-3.545.063-4.027,0-8.055-.022-12.083-.016-.786,0-1.457-.042-1.164-1.251.92-.173,1.894-.375,2.875-.533a2.983,2.983,0,0,0,2.826-2.939c.155-2.439.3-4.886.307-7.328.023-8.572-.007-17.144-.037-25.716a20.6,20.6,0,0,0-.221-2.872c-.323-2.213-1.045-2.909-3.267-3.26a8.815,8.815,0,0,1-1.681-.251c-.368-.138-.629-.563-.935-.859l.342-.445" transform="translate(44.941 8.508)" fill="#474647"/>
          <path id="Path_27" data-name="Path 27" d="M493.26,24.693a9.168,9.168,0,0,1-7.991-5.377,8.806,8.806,0,0,1,.9-9.649c2.7-3.71,8.559-4.972,12.823-2.813a9.245,9.245,0,0,1,4.991,11.079c-1.205,4-5.2,6.768-10.719,6.761m9.818-9.528c.005-4.523-3.938-8.209-8.793-8.221a8.692,8.692,0,0,0-8.8,8.4c.018,4.441,4.1,8.256,8.836,8.263a8.671,8.671,0,0,0,8.759-8.443" transform="translate(179.016 2.143)" fill="#474647"/>
          <path id="Path_28" data-name="Path 28" d="M494.907,14.489c2.287.914,1.994,2.775,2.105,4.583-.782.041-1.635.625-1.692-.815-.1-2.622-.705-3.154-3.361-3.157-.429,0-.857.048-1.5.086v3.875H488.73c0-3.2-.018-6.335.037-9.473,0-.24.531-.666.822-.671,1.441-.033,2.889-.008,4.327.1,1.981.153,2.9.783,3.16,2.008.331,1.56-.114,2.32-2.168,3.463m-4.445-2.612c0,2.052,0,2.052,2.067,1.948,2.155-.108,2.856-.571,2.846-1.878s-.725-1.782-2.854-1.915c-2.059-.129-2.059-.129-2.059,1.845" transform="translate(180.678 3.291)" fill="#474647"/>
        </g>
      </g>
    </g>
  </g>
</svg>
